<svg width="40" height="40" viewBox="0 0 40 40" fill="none" xmlns="http://www.w3.org/2000/svg">
<circle cx="20" cy="20" r="19" fill="white" stroke="#279CB6" stroke-width="2"/>
<path d="M29.4865 27.9687C28.0043 25.4075 25.6774 23.6103 22.9736 22.8481C24.2882 22.1799 25.3393 21.0885 25.9576 19.7498C26.5759 18.411 26.7254 16.9031 26.3818 15.4691C26.0382 14.0351 25.2217 12.7586 24.0639 11.8454C22.9061 10.9322 21.4745 10.4355 19.9999 10.4355C18.5253 10.4355 17.0937 10.9322 15.9359 11.8454C14.7781 12.7586 13.9615 14.0351 13.618 15.4691C13.2744 16.9031 13.4239 18.411 14.0422 19.7498C14.6605 21.0885 15.7116 22.1799 17.0261 22.8481C14.3224 23.6094 11.9955 25.4065 10.5133 27.9687C10.4726 28.0328 10.4453 28.1043 10.433 28.1792C10.4207 28.2541 10.4236 28.3306 10.4417 28.4043C10.4597 28.478 10.4925 28.5473 10.538 28.608C10.5835 28.6687 10.6409 28.7195 10.7065 28.7575C10.7722 28.7955 10.8449 28.8197 10.9202 28.8289C10.9955 28.838 11.0719 28.8319 11.1448 28.8107C11.2176 28.7896 11.2855 28.7539 11.3442 28.7059C11.4029 28.6579 11.4513 28.5985 11.4865 28.5312C13.2874 25.4197 16.4693 23.5625 19.9999 23.5625C23.5305 23.5625 26.7124 25.4197 28.5133 28.5312C28.5485 28.5985 28.5969 28.6579 28.6556 28.7059C28.7143 28.7539 28.7822 28.7896 28.855 28.8107C28.9279 28.8319 29.0043 28.838 29.0796 28.8289C29.1549 28.8197 29.2276 28.7955 29.2933 28.7575C29.3589 28.7195 29.4163 28.6687 29.4618 28.608C29.5073 28.5473 29.5401 28.478 29.5581 28.4043C29.5762 28.3306 29.5791 28.2541 29.5668 28.1792C29.5545 28.1043 29.5272 28.0328 29.4865 27.9687ZM14.5624 17C14.5624 15.9245 14.8813 14.8733 15.4788 13.9791C16.0763 13.0849 16.9255 12.3879 17.9191 11.9764C18.9126 11.5648 20.0059 11.4572 21.0607 11.667C22.1155 11.8768 23.0843 12.3946 23.8448 13.1551C24.6052 13.9155 25.1231 14.8844 25.3329 15.9392C25.5427 16.994 25.435 18.0873 25.0235 19.0808C24.6119 20.0744 23.915 20.9236 23.0208 21.5211C22.1266 22.1186 21.0753 22.4375 19.9999 22.4375C18.5583 22.4357 17.1763 21.8623 16.1569 20.843C15.1376 19.8236 14.5641 18.4416 14.5624 17Z" fill="#1C1B1B"/>
</svg>
