<svg width="24" height="24" viewBox="0 0 24 24" fill="none" xmlns="http://www.w3.org/2000/svg">
<path d="M4.95907 21.6992L4.95677 21.6978C4.8968 21.6634 4.84492 21.6122 4.80797 21.5479C4.77104 21.4836 4.75088 21.4092 4.75066 21.3325V4.21833V4.21005L4.75048 4.20178C4.73928 3.69451 4.92455 3.20594 5.26166 2.84145C5.59545 2.48054 6.05079 2.27026 6.52924 2.25H17.4708C17.9492 2.27026 18.4046 2.48054 18.7383 2.84145C19.0754 3.20594 19.2607 3.69451 19.2495 4.20178L19.2493 4.21005V4.21833V21.3306C19.2486 21.4057 19.2288 21.4784 19.1928 21.5415C19.1566 21.6051 19.1059 21.6559 19.0471 21.6905L19.0471 21.6906C18.9881 21.7253 18.9225 21.743 18.8566 21.743C18.7907 21.743 18.725 21.7253 18.666 21.6906L18.666 21.6905L18.6605 21.6873L12.181 17.9423L11.7945 17.7189L11.4138 17.9522L5.32287 21.6856L5.32283 21.6855L5.31334 21.6915C5.2582 21.7264 5.1966 21.7461 5.13411 21.7498C5.07353 21.7477 5.01352 21.7307 4.95907 21.6992Z" stroke="#999999" stroke-width="1.5"/>
</svg>
