<svg width="36" height="36" viewBox="0 0 36 36" fill="none" xmlns="http://www.w3.org/2000/svg">
<rect width="36" height="36" rx="10" fill="black" fill-opacity="0.6"/>
<path d="M12.1952 25.9744L12.1929 25.9731C12.1624 25.9556 12.135 25.9289 12.1151 25.8943C12.0952 25.8597 12.0841 25.8192 12.0839 25.7769V11.5153V11.507L12.0837 11.4987C12.0751 11.1081 12.2179 10.7324 12.4765 10.4527C12.7319 10.1766 13.0794 10.0161 13.4438 10H22.5563C22.9207 10.0161 23.2681 10.1766 23.5236 10.4527C23.7822 10.7324 23.925 11.1081 23.9163 11.4987L23.9162 11.507V11.5153V25.7748C23.9157 25.816 23.9047 25.8555 23.8854 25.8894C23.8659 25.9236 23.8391 25.9501 23.8092 25.9678L24.19 26.6139L23.8092 25.9678C23.7791 25.9855 23.7463 25.9941 23.7139 25.9941C23.6814 25.9941 23.6486 25.9855 23.6185 25.9678L23.6185 25.9677L23.613 25.9645L18.2135 22.8437L17.8269 22.6203L17.4462 22.8536L12.3704 25.9647L12.3704 25.9647L12.3609 25.9707C12.3345 25.9874 12.3058 25.9969 12.2769 25.9996C12.249 25.9977 12.2211 25.9894 12.1952 25.9744Z" stroke="white" stroke-width="1.5"/>
</svg>
