<svg width="17" height="17" viewBox="0 0 17 17" fill="none" xmlns="http://www.w3.org/2000/svg">
<path d="M7.65638 13.8833C9.38616 13.8833 10.8584 13.2777 12.073 12.0665C13.2876 10.8552 13.8949 9.38305 13.8949 7.65C13.8949 5.92167 13.2876 4.45069 12.073 3.23708C10.8584 2.02346 9.38616 1.41665 7.65638 1.41665C5.92189 1.41665 4.4485 2.02346 3.23623 3.23708C2.02396 4.45069 1.41783 5.92167 1.41783 7.65C1.41783 9.38305 2.02396 10.8552 3.23623 12.0665C4.4485 13.2777 5.92189 13.8833 7.65638 13.8833ZM7.65638 15.3C6.593 15.3 5.59696 15.0981 4.66827 14.6944C3.73958 14.2906 2.9314 13.7452 2.24375 13.0581C1.55609 12.371 1.01022 11.5635 0.60613 10.6356C0.202043 9.70771 0 8.7125 0 7.65C0 6.60167 0.202043 5.61354 0.60613 4.68563C1.01022 3.75771 1.55609 2.94667 2.24375 2.2525C2.9314 1.55833 3.73958 1.00938 4.66827 0.605625C5.59696 0.201875 6.593 0 7.65638 0C8.70559 0 9.69454 0.201875 10.6232 0.605625C11.5519 1.00938 12.3636 1.55833 13.0584 2.2525C13.7531 2.94667 14.3025 3.75771 14.7066 4.68563C15.1107 5.61354 15.3128 6.60167 15.3128 7.65C15.3128 8.585 15.1568 9.46569 14.8449 10.2921C14.533 11.1185 14.1005 11.8693 13.5475 12.5446L17 16.0083L16.0004 17L12.5338 13.5433C11.8579 14.0958 11.1065 14.5267 10.2794 14.8361C9.45232 15.1454 8.57798 15.3 7.65638 15.3Z" fill="#999999"/>
</svg>
